<?xml version="1.0" encoding="UTF-8" standalone="no"?>
<svg
   xmlns:dc="http://purl.org/dc/elements/1.1/"
   xmlns:cc="http://creativecommons.org/ns#"
   xmlns:rdf="http://www.w3.org/1999/02/22-rdf-syntax-ns#"
   xmlns:svg="http://www.w3.org/2000/svg"
   xmlns="http://www.w3.org/2000/svg"
   xmlns:sodipodi="http://sodipodi.sourceforge.net/DTD/sodipodi-0.dtd"
   xmlns:inkscape="http://www.inkscape.org/namespaces/inkscape"
   width="70"
   height="30"
   viewBox="0 0 18.520833 7.9375002"
   version="1.1"
   id="svg8"
   inkscape:version="1.0beta2 (2b71d25, 2019-12-03)"
   sodipodi:docname="tag-std.svg">
  <defs
     id="defs2" />
  <sodipodi:namedview
     id="base"
     pagecolor="#ffffff"
     bordercolor="#666666"
     borderopacity="1.0"
     inkscape:pageopacity="0.0"
     inkscape:pageshadow="2"
     inkscape:zoom="19.397756"
     inkscape:cx="38.840673"
     inkscape:cy="24.289289"
     inkscape:document-units="mm"
     inkscape:current-layer="layer1"
     inkscape:document-rotation="0"
     showgrid="false"
     units="px"
     inkscape:window-width="2277"
     inkscape:window-height="1180"
     inkscape:window-x="2017"
     inkscape:window-y="104"
     inkscape:window-maximized="0" />
  <metadata
     id="metadata5">
    <rdf:RDF>
      <cc:Work
         rdf:about="">
        <dc:format>image/svg+xml</dc:format>
        <dc:type
           rdf:resource="http://purl.org/dc/dcmitype/StillImage" />
        <dc:title />
      </cc:Work>
    </rdf:RDF>
  </metadata>
  <g
     inkscape:label="Layer 1"
     inkscape:groupmode="layer"
     id="layer1">
    <path
       id="rect851"
       style="fill:#e6e6e6;stroke:#808080;stroke-width:0.273714;stroke-miterlimit:4;stroke-dasharray:none"
       d="m 17.397408,0.13694254 c 0.54656,10e-9 0.986503,0.44593895 0.986503,0.99993896 v 5.6637369 c 0,0.5539999 -0.439943,0.999939 -0.986503,0.999939 H 4.5010374 C 2.9867085,7.7808406 0.36743962,4.4364216 0.36743962,4.4364216 c 0,0 -0.22767686,-0.20726 -0.23047695,-0.5880777 -0.002781,-0.3808177 0.29352213,-0.649056 0.29352213,-0.649056 0,0 2.8573907,-3.05948536 4.0705526,-3.06234536 z M 2.9858843,2.9145507 a 0.9671945,0.9671945 0 0 0 -0.030489,0 A 0.9671945,0.9671945 0 0 0 1.9880125,3.8814168 0.9671945,0.9671945 0 0 0 2.9553953,4.8487996 0.9671945,0.9671945 0 0 0 3.9227781,3.8814168 0.9671945,0.9671945 0 0 0 2.9858843,2.9145507 Z"
       inkscape:connector-curvature="0" />
    <path
       id="path841"
       style="fill:#808080;stroke:#808080;stroke-width:0.264583"
       d="M 17.431783,4.9280322 A 0.34781731,0.34781731 0 0 1 17.083966,5.2758495 0.34781731,0.34781731 0 0 1 16.736148,4.9280322 0.34781731,0.34781731 0 0 1 17.083966,4.5802148 0.34781731,0.34781731 0 0 1 17.431783,4.9280322"
       inkscape:connector-curvature="0" />
    <g
       style="font-size:3.94616px;line-height:1.25;font-family:Roboto;-inkscape-font-specification:Roboto;fill:#808080;stroke-width:0.264584"
       id="text848"
       transform="matrix(0.91139218,0,0,1.0972225,0.19095846,0)"
       aria-label="CC Req">
      <path
         inkscape:connector-curvature="0"
         id="path861"
         style="fill:#808080;stroke-width:0.264584"
         d="M 7.203693,4.0104375 Q 7.1516684,4.4555366 6.8742041,4.6983179 6.5986665,4.9391724 6.1400796,4.9391724 q -0.4971237,0 -0.7977101,-0.3564646 Q 5.0437099,4.2262431 5.0437099,3.628924 V 3.3591669 q 0,-0.3911477 0.1387322,-0.6878804 0.140659,-0.2967327 0.3969282,-0.4547333 0.2562692,-0.1599274 0.5934655,-0.1599274 0.4470259,0 0.716783,0.2504887 0.269757,0.2485618 0.3140742,0.6898073 H 6.8318137 Q 6.7836428,2.6616523 6.6217886,2.5113591 6.4618612,2.3610659 6.1728358,2.3610659 q -0.3545378,0 -0.5568556,0.2620497 -0.200391,0.2620497 -0.200391,0.7456855 V 3.640485 q 0,0.4566601 0.1907568,0.7264172 0.1907568,0.269757 0.5337336,0.269757 0.3082937,0 0.4720748,-0.1387322 0.1657079,-0.140659 0.2196593,-0.4874895 z" />
      <path
         inkscape:connector-curvature="0"
         id="path863"
         style="fill:#808080;stroke-width:0.264584"
         d="M 9.7702385,4.0104375 Q 9.7182139,4.4555366 9.4407496,4.6983179 9.165212,4.9391724 8.706625,4.9391724 q -0.4971236,0 -0.79771,-0.3564646 Q 7.6102554,4.2262431 7.6102554,3.628924 V 3.3591669 q 0,-0.3911477 0.1387322,-0.6878804 0.140659,-0.2967327 0.3969282,-0.4547333 0.2562692,-0.1599274 0.5934655,-0.1599274 0.4470259,0 0.7167829,0.2504887 0.2697571,0.2485618 0.3140743,0.6898073 H 9.3983592 Q 9.3501883,2.6616523 9.188334,2.5113591 9.0284067,2.3610659 8.7393813,2.3610659 q -0.3545379,0 -0.5568556,0.2620497 -0.200391,0.2620497 -0.200391,0.7456855 V 3.640485 q 0,0.4566601 0.1907568,0.7264172 0.1907567,0.269757 0.5337335,0.269757 0.3082938,0 0.4720749,-0.1387322 0.1657079,-0.140659 0.2196593,-0.4874895 z" />
      <path
         inkscape:connector-curvature="0"
         id="path865"
         style="fill:#808080;stroke-width:0.264584"
         d="M 12.280906,3.7657293 H 11.621928 V 4.9006357 H 11.250049 V 2.0951625 h 0.928734 q 0.474002,0 0.728344,0.2158057 0.25627,0.2158056 0.25627,0.6281485 0,0.2620497 -0.142586,0.4566601 -0.140659,0.1946105 -0.393075,0.2909523 l 0.658978,1.1907846 v 0.023122 H 12.889786 Z M 11.621928,3.4632161 h 0.568417 q 0.275537,0 0.437391,-0.1425859 0.163781,-0.1425858 0.163781,-0.3815135 0,-0.2601229 -0.156073,-0.3988551 -0.154147,-0.1387321 -0.447026,-0.140659 h -0.56649 z" />
      <path
         inkscape:connector-curvature="0"
         id="path867"
         style="fill:#808080;stroke-width:0.264584"
         d="m 14.48906,4.9391724 q -0.423904,0 -0.689808,-0.2774643 -0.265903,-0.2793913 -0.265903,-0.7456856 v -0.065512 q 0,-0.3102206 0.117537,-0.5530019 0.119464,-0.2447082 0.331416,-0.3815135 0.213878,-0.1387322 0.46244,-0.1387322 0.406563,0 0.632003,0.2678302 0.225439,0.2678302 0.225439,0.7668807 v 0.1483664 h -1.41237 q 0.0077,0.3082937 0.179195,0.4990505 0.173416,0.1888299 0.439319,0.1888299 0.18883,0 0.319855,-0.077073 0.131025,-0.077074 0.229293,-0.2042446 l 0.217733,0.1695615 Q 15.013159,4.9391732 14.48906,4.9391724 Z M 14.44474,3.0701415 q -0.215805,0 -0.362245,0.1580006 -0.146439,0.1560737 -0.181122,0.4393186 H 14.94572 V 3.640485 Q 14.930305,3.3688011 14.79928,3.2204347 14.668255,3.0701415 14.444742,3.0701415 Z" />
      <path
         inkscape:connector-curvature="0"
         id="path869"
         style="fill:#808080;stroke-width:0.264584"
         d="m 15.625893,3.8408759 q 0,-0.4913431 0.22544,-0.7765149 0.22544,-0.2870985 0.605027,-0.2870985 0.369952,0 0.583831,0.2485618 l 0.01542,-0.2100251 h 0.327562 v 2.8864003 h -0.35647 V 4.7079521 q -0.215806,0.2312203 -0.574197,0.2312203 -0.37766,0 -0.6031,-0.292879 -0.223513,-0.2948059 -0.223513,-0.7803686 z m 0.356465,0.040464 q 0,0.3583915 0.150293,0.5626361 0.15222,0.2042446 0.408489,0.2042446 0.317928,0 0.485563,-0.281318 V 3.3456791 q -0.169561,-0.2755376 -0.481709,-0.2755376 -0.258196,0 -0.410416,0.2061715 -0.15222,0.2042446 -0.15222,0.6050269 z" />
    </g>
  </g>
</svg>
